<svg xmlns="http://www.w3.org/2000/svg" viewBox="0 0 96 96" width="96" height="96" role="img" aria-label="Crisp live chat">
  <defs>
    <linearGradient id="cr-bg" x1="0" y1="0" x2="1" y2="1">
      <stop offset="0%" stop-color="#1f1b16"/>
      <stop offset="100%" stop-color="#3a2f24"/>
    </linearGradient>
  </defs>
  <rect x="0" y="0" width="96" height="96" rx="22" fill="url(#cr-bg)"/>
  <g transform="translate(18 22)">
    <path d="M 4 0 h 44 a 8 8 0 0 1 8 8 v 28 a 8 8 0 0 1 -8 8 h -22 l -14 10 v -10 h -8 a 8 8 0 0 1 -8 -8 v -28 a 8 8 0 0 1 8 -8 z"
          fill="#d8b766" opacity="0.9"/>
    <circle cx="20" cy="22" r="3" fill="#1f1b16"/>
    <circle cx="32" cy="22" r="3" fill="#1f1b16"/>
    <circle cx="44" cy="22" r="3" fill="#1f1b16"/>
  </g>
</svg>
