<svg viewBox="0 0 62.7 89.1" aria-hidden="true" focusable="false"><path d="M58,65.1L40.5,82.5c0-0.1,0-0.2,0.1-0.3c0.1-0.5,0.2-0.9,0.2-1.4c0-0.2,0-0.4,0.1-0.6c0-0.4,0.1-0.7,0.1-1 c0-0.2,0-0.4,0-0.5c0-0.3,0-0.7,0-1c0-0.1,0-0.3,0-0.4c0-0.4,0-0.8,0-1.1c-0.3-5.1-2.6-10-6.3-13.9c0-0.1-0.1-0.1-0.2-0.2l0,0 l-1.2-1.2l1.4-1.4c3.8-3.9,6.1-8.8,6.6-14c0.1-0.6,0.1-1.2,0.1-1.9c0-0.2,0-0.3,0-0.5c0-0.5,0-1-0.1-1.5c0-0.1,0-0.2,0-0.3 c-0.1-0.5-0.1-1-0.2-1.5l17,17C60.3,59,60.3,62.8,58,65.1 M33.5,86.2H10.7c-0.7,0-1-0.5-1-0.7c-0.1-0.2-0.2-0.7,0.2-1.2L31.2,63 l1.3,1.3c0,0,0,0,0,0c3.3,3.3,5.2,7.6,5.5,12.1c0,0.2,0,0.5,0,0.8c0,0.1,0,0.3,0,0.4c0,0.2,0,0.4,0,0.6c0,0.2,0,0.5,0,0.8 c0,0.1,0,0.2,0,0.3c0,0.4-0.1,0.7-0.1,1.1c0,0,0,0,0,0c-0.2,1.2-0.5,2.5-1,3.9c0,0,0,0,0,0.1c-0.1,0.4-0.3,0.7-0.5,1.1 c0,0.1-0.1,0.2-0.1,0.3C35.4,86,34.4,86.2,33.5,86.2 M4.7,32.4c-2.3-2.3-2.3-6,0-8.3L22.1,6.6c0,0.1,0,0.2-0.1,0.3 c-0.1,0.5-0.2,0.9-0.2,1.4c0,0.2,0,0.4-0.1,0.6c0,0.4-0.1,0.7-0.1,1c0,0.2,0,0.4,0,0.5c0,0.3,0,0.7,0,1c0,0.1,0,0.3,0,0.4 c0,0.4,0,0.8,0,1.1c0.3,5.1,2.6,10,6.3,13.9c0,0,0,0,0.1,0.1l1.3,1.3L28,29.6c-3.8,3.9-6.2,8.9-6.6,14c-0.1,0.6-0.1,1.2-0.1,1.8 c0,0.2,0,0.3,0,0.5c0,0.5,0,1,0.1,1.5c0,0.1,0,0.2,0,0.4c0.1,0.5,0.1,1,0.3,1.5L4.7,32.4z M29.2,2.9h22.7c0.7,0,1,0.5,1,0.7 c0.1,0.2,0.2,0.7-0.2,1.2L31.4,26.1l-1.3-1.3c0,0,0,0,0,0c-3.3-3.3-5.2-7.6-5.5-12.1c0-0.2,0-0.5,0-0.8c0,0,0-0.1,0-0.1 c0-0.3,0-0.5,0-0.8c0,0,0-0.1,0-0.1c0-1.4,0.2-3.1,0.8-4.9c0,0,0,0,0,0c0.1-0.4,0.3-0.9,0.5-1.3C25.9,4.4,26,4.3,26,4.2 c0.1-0.2,0.2-0.5,0.3-0.7C27.3,3.1,28.2,2.9,29.2,2.9 M33.8,56.1c-0.4,0.4-0.7,0.8-1.1,1.3l-1.4,1.4l-2.7-2.7 c-3.1-3.2-4.6-7.6-4.2-12.2c0.1-1.1,0.3-2.2,0.6-3.3c0.3-0.9,0.6-1.9,1-2.8c0.1-0.1,0.1-0.3,0.2-0.4c1-2.1,2.3-4,4-5.7l1.3-1.3 l2.6,2.6c3.2,3.2,4.7,7.6,4.3,12.3C38,49.1,36.4,52.9,33.8,56.1 M40.6,35.3l-4.5-4.5c0,0,0,0,0,0l-2.5-2.5L54.8,6.9 c1.2-1.2,1.5-2.9,0.9-4.4C55,1,53.6,0,51.9,0H29.2c-1.5,0-3,0.3-4.5,0.9c0,0-0.1,0-0.1,0.1c0,0-0.1,0-0.1,0l-1.8,1 c0,0-0.1,0.1-0.1,0.1c-0.1,0.1-0.3,0.2-0.4,0.3l-0.3,0.2c-0.2,0.2-0.5,0.4-0.7,0.6L2.6,22c-3.4,3.4-3.4,9,0,12.5l19.5,19.4 c0,0,0,0,0,0l4.5,4.5c0,0,0,0,0,0l2.5,2.5L7.9,82.2c-1.2,1.2-1.5,2.9-0.9,4.4c0.6,1.5,2.1,2.5,3.8,2.5h22.7c1.5,0,3-0.3,4.5-0.9 c0,0,0,0,0.1,0c0,0,0.1,0,0.1,0l1.8-1c0.1,0,0.1-0.1,0.2-0.1c0.1-0.1,0.2-0.2,0.5-0.4l0.2-0.1c0.2-0.2,0.5-0.4,0.7-0.6l18.7-18.7 c3.4-3.4,3.4-9,0-12.5L40.6,35.3z"></path></svg>