<svg xmlns="http://www.w3.org/2000/svg" viewBox="0 0 96 96" role="img" aria-label="Mailchimp">
  <rect width="96" height="96" rx="22" fill="#FFE01B"/>
  <path fill="#241C15" d="M45.3 17.5C33.4 17.5 11.8 44.9 20.4 52.2l2.1 1.8c-.4 1.5-.6 3.1-.4 4.8.2 2.2 1.4 4.4 3.2 6 1.8 1.6 4.1 2.6 6.4 2.6 3.8 8.6 12.4 13.9 22.4 14.2 10.8.3 19.8-4.7 23.6-13.8.2-.6 1.3-3.5 1.3-6 0-2.6-1.4-3.6-2.4-3.6-.1-.4-.5-1.6-1-2.9 1-1.5 1-2.8.9-3.6-.1-.9-.5-1.7-1.3-2.6-.8-.8-2.4-1.7-4.7-2.3l-1.2-.3c0-.5-.1-2.8-.1-4-.1-1.5-.4-3.8-1.7-5.2 3-3.1 4.8-6.5 4.8-9.4 0-5.6-6.9-7.3-15.3-3.8l-1.8.8c-1.3-1.4-2.8-3.1-3.3-3.5-1.1-.9-2.4-1.4-3.9-1.4zm.2 2.3c.4 0 .8 0 1.2.2.8.2 3.4 3.3 3.4 3.3s-4.9 2.7-9.4 6.5c-6.1 4.7-10.7 11.5-13.4 18.9-2.2.4-4.1 1.6-5.2 3.3-.7-.6-2-1.7-2.2-2.1-1.9-3.5 2-10.4 4.8-14.3 6.1-8.9 15.6-15.8 20.8-15.8zm16.9 17.3c.6 0 1.1.1 1.6.4 1.4.9 1.6 3.2 1.7 4.9.1 1 .2 3.3.2 3.9.1 1.5.5 1.7 1.3 2 .5.2.9.3 1.5.4 1.9.5 3 .9 3.7 1.7.4.4.6.9.7 1.3.2 1.6-1.3 3.6-5.2 5.4-4.3 2-9.5 2.5-13.1 2.1l-1.3-.1c-2.9-.4-4.5 3.3-2.8 5.9 1.1 1.6 4.1 2.7 7.2 2.7 7 0 12.3-3 14.3-5.5.1-.2.4-.4.3-.1-1.6 2.8-8.6 6.8-16.5 5.5 0 0-.9-.2-1.8-.5-.7-.3-2.1-.9-2.3-2.4 6.2 1.9 10.1.1 10.1.1.4-.2.3-.8-.2-.7 0 0-5.1.8-9.9-1 .5-1.7 1.9-1.1 4-.9 2.9.2 6.2-.2 9.7-1.1 2.2-.6 5-1.9 7.3-3.6.7 1.6 1 3.5 1 3.5.6-.1 1.1.1 1.4.3.5.3.8.9.6 2.4-.5 2.8-1.7 5.1-3.7 7.3-3.5 3.6-8.7 5.2-14.1 5-7.7-.2-15.5-3-18-8.9-1.6-3.7-.7-8.4 2.2-11.4.4-.4.4-.9.1-1.3-1-1.4-4.5-3.9-3.8-8.7.5-3.4 3.5-5.8 6.3-5.7 2.3.1 3.7.5 5.4.5s3.2-.3 5-1.8c.6-.5 1.1-.9 1.9-1.1.3-.1.8-.1 1.1-.1z"/>
</svg>
