<svg xmlns="http://www.w3.org/2000/svg" viewBox="0 0 600 600" role="img" aria-labelledby="title-launchpad-5">
  <title id="title-launchpad-5">Sample launchpad product 5</title>
  <desc>Stylized placeholder rendered in the launchpad template palette.</desc>
  <rect width="600" height="600" fill="#F5DDC8"/>
  <g opacity="0.10" stroke="#2D1A1A" stroke-width="1">
      <line x1="60" y1="60" x2="60" y2="540"/><line x1="60" y1="60" x2="540" y2="60"/><line x1="120" y1="60" x2="120" y2="540"/><line x1="60" y1="120" x2="540" y2="120"/><line x1="180" y1="60" x2="180" y2="540"/><line x1="60" y1="180" x2="540" y2="180"/><line x1="240" y1="60" x2="240" y2="540"/><line x1="60" y1="240" x2="540" y2="240"/><line x1="300" y1="60" x2="300" y2="540"/><line x1="60" y1="300" x2="540" y2="300"/><line x1="360" y1="60" x2="360" y2="540"/><line x1="60" y1="360" x2="540" y2="360"/><line x1="420" y1="60" x2="420" y2="540"/><line x1="60" y1="420" x2="540" y2="420"/><line x1="480" y1="60" x2="480" y2="540"/><line x1="60" y1="480" x2="540" y2="480"/><line x1="540" y1="60" x2="540" y2="540"/><line x1="60" y1="540" x2="540" y2="540"/>
    </g>
    <g transform="translate(300 320)">
      <path d="M -70 -130 Q -70 -150 -50 -150 L 50 -150 Q 70 -150 70 -130 L 70 -100 Q 110 -60 110 0 L 110 110 Q 110 150 70 150 L -70 150 Q -110 150 -110 110 L -110 0 Q -110 -60 -70 -100 Z"
            fill="#2D1A1A" opacity="0.92"/>
      <path d="M -40 -110 L 40 -110" stroke="#C26A52" stroke-width="4" stroke-linecap="round"/>
      <circle cx="0" cy="40" r="22" fill="#C26A52"/>
    </g>
    <circle cx="500" cy="100" r="6" fill="#C26A52"/>
  <g font-family="ui-sans-serif, system-ui, sans-serif" font-size="11" fill="#2D1A1A" opacity="0.55">
    <text x="40" y="560" letter-spacing="2">SOUQNA · SAMPLE · 05</text>
  </g>
</svg>
