<svg xmlns="http://www.w3.org/2000/svg" viewBox="0 0 1400 900" role="img" aria-label="AI dashboard surface">
  <defs>
    <linearGradient id="bg" x1="0" y1="0" x2="1" y2="1">
      <stop offset="0" stop-color="#10140f"/>
      <stop offset="0.42" stop-color="#233526"/>
      <stop offset="1" stop-color="#f1c86a"/>
    </linearGradient>
    <linearGradient id="line" x1="0" y1="0" x2="1" y2="0">
      <stop offset="0" stop-color="#f1c86a" stop-opacity="0.08"/>
      <stop offset="0.5" stop-color="#f8f0df" stop-opacity="0.72"/>
      <stop offset="1" stop-color="#67c587" stop-opacity="0.12"/>
    </linearGradient>
    <pattern id="grid" width="64" height="64" patternUnits="userSpaceOnUse">
      <path d="M64 0H0V64" fill="none" stroke="#f8f0df" stroke-opacity="0.08" stroke-width="1"/>
    </pattern>
  </defs>
  <rect width="1400" height="900" fill="url(#bg)"/>
  <rect width="1400" height="900" fill="url(#grid)"/>
  <g fill="none" stroke="url(#line)" stroke-width="6" stroke-linecap="round">
    <path d="M80 610C230 470 320 520 440 420S640 230 790 310s250 220 530-40"/>
    <path d="M70 720c170-95 290-80 420-170s210-180 380-120 230 140 460-20" opacity="0.54"/>
    <path d="M120 225c190 20 270 135 410 118s245-130 410-88 220 116 340 46" opacity="0.42"/>
  </g>
  <g fill="#f8f0df" fill-opacity="0.72">
    <circle cx="440" cy="420" r="12"/>
    <circle cx="790" cy="310" r="12"/>
    <circle cx="1040" cy="490" r="12"/>
    <circle cx="530" cy="343" r="8"/>
    <circle cx="960" cy="255" r="8"/>
  </g>
  <g fill="#0d0f0d" fill-opacity="0.42">
    <rect x="930" y="118" width="310" height="74" rx="8"/>
    <rect x="982" y="218" width="220" height="32" rx="6"/>
    <rect x="188" y="120" width="260" height="84" rx="8"/>
    <rect x="232" y="230" width="350" height="38" rx="6"/>
  </g>
</svg>
