<svg xmlns="http://www.w3.org/2000/svg" viewBox="0 0 600 600" role="img" aria-labelledby="title-souqline-4">
  <title id="title-souqline-4">Sample souqline product 4</title>
  <desc>Stylized placeholder rendered in the souqline template palette.</desc>
  <rect width="600" height="600" fill="#E8DCC4"/>
  <g opacity="0.08" stroke="#1F1B16" stroke-width="1">
      <line x1="60" y1="60" x2="60" y2="540"/><line x1="60" y1="60" x2="540" y2="60"/><line x1="120" y1="60" x2="120" y2="540"/><line x1="60" y1="120" x2="540" y2="120"/><line x1="180" y1="60" x2="180" y2="540"/><line x1="60" y1="180" x2="540" y2="180"/><line x1="240" y1="60" x2="240" y2="540"/><line x1="60" y1="240" x2="540" y2="240"/><line x1="300" y1="60" x2="300" y2="540"/><line x1="60" y1="300" x2="540" y2="300"/><line x1="360" y1="60" x2="360" y2="540"/><line x1="60" y1="360" x2="540" y2="360"/><line x1="420" y1="60" x2="420" y2="540"/><line x1="60" y1="420" x2="540" y2="420"/><line x1="480" y1="60" x2="480" y2="540"/><line x1="60" y1="480" x2="540" y2="480"/><line x1="540" y1="60" x2="540" y2="540"/><line x1="60" y1="540" x2="540" y2="540"/>
    </g>
    <circle cx="220" cy="240" r="100" fill="#1F1B16" opacity="0.92"/>
    <rect x="320" y="180" width="140" height="180" rx="8" fill="#C9A961" opacity="0.95"/>
    <rect x="180" y="380" width="240" height="80" rx="10" fill="#1F1B16" opacity="0.62"/>
    <circle cx="430" cy="420" r="20" fill="#C9A961"/>
    <circle cx="160" cy="160" r="8" fill="#C9A961"/>
  <g font-family="ui-sans-serif, system-ui, sans-serif" font-size="11" fill="#1F1B16" opacity="0.55">
    <text x="40" y="560" letter-spacing="2">SOUQNA · SAMPLE · 04</text>
  </g>
</svg>
