<svg xmlns="http://www.w3.org/2000/svg" viewBox="0 0 600 600" role="img" aria-labelledby="title-atrium-5">
  <title id="title-atrium-5">Sample atrium product 5</title>
  <desc>Stylized placeholder rendered in the atrium template palette.</desc>
  <rect width="600" height="600" fill="#F4F1EB"/>
  <g opacity="0.08" stroke="#0E0E10" stroke-width="1">
      <line x1="60" y1="60" x2="60" y2="540"/><line x1="60" y1="60" x2="540" y2="60"/><line x1="120" y1="60" x2="120" y2="540"/><line x1="60" y1="120" x2="540" y2="120"/><line x1="180" y1="60" x2="180" y2="540"/><line x1="60" y1="180" x2="540" y2="180"/><line x1="240" y1="60" x2="240" y2="540"/><line x1="60" y1="240" x2="540" y2="240"/><line x1="300" y1="60" x2="300" y2="540"/><line x1="60" y1="300" x2="540" y2="300"/><line x1="360" y1="60" x2="360" y2="540"/><line x1="60" y1="360" x2="540" y2="360"/><line x1="420" y1="60" x2="420" y2="540"/><line x1="60" y1="420" x2="540" y2="420"/><line x1="480" y1="60" x2="480" y2="540"/><line x1="60" y1="480" x2="540" y2="480"/><line x1="540" y1="60" x2="540" y2="540"/><line x1="60" y1="540" x2="540" y2="540"/>
    </g>
    <circle cx="300" cy="300" r="200" fill="#0E0E10" opacity="0.05" stroke="#0E0E10" stroke-width="2"/>
    <circle cx="300" cy="300" r="150" fill="#0E0E10" opacity="0.92"/>
    <circle cx="300" cy="300" r="70" fill="#3B3B45"/>
    <circle cx="300" cy="300" r="30" fill="#0E0E10"/>
    <g stroke="#3B3B45" stroke-width="2" opacity="0.6">
      <line x1="300" y1="80" x2="300" y2="100"/>
      <line x1="300" y1="500" x2="300" y2="520"/>
      <line x1="80" y1="300" x2="100" y2="300"/>
      <line x1="500" y1="300" x2="520" y2="300"/>
    </g>
  <g font-family="ui-sans-serif, system-ui, sans-serif" font-size="11" fill="#0E0E10" opacity="0.55">
    <text x="40" y="560" letter-spacing="2">SOUQNA · SAMPLE · 05</text>
  </g>
</svg>
