<svg xmlns="http://www.w3.org/2000/svg" viewBox="0 0 96 96" role="img" aria-label="WhatsApp">
  <rect width="96" height="96" rx="22" fill="#25D366"/>
  <path fill="#fff" d="M67.9 56.7c-.8-.4-4.7-2.3-5.4-2.6-.7-.3-1.3-.4-1.8.4-.5.8-2.1 2.6-2.5 3.1-.5.5-.9.6-1.7.2-.8-.4-3.3-1.2-6.4-4-2.4-2.1-4-4.7-4.4-5.5-.5-.8 0-1.2.3-1.6.4-.4.8-.9 1.2-1.4.4-.5.5-.8.8-1.3.3-.5.1-1-.1-1.4-.2-.4-1.8-4.3-2.5-5.9-.6-1.5-1.3-1.3-1.8-1.3h-1.5c-.5 0-1.4.2-2.1 1-.7.8-2.8 2.7-2.8 6.6s2.8 7.7 3.2 8.2c.4.5 5.6 8.5 13.5 12 1.9.8 3.4 1.3 4.5 1.7 1.9.6 3.6.5 5 .3 1.5-.2 4.7-1.9 5.4-3.8.7-1.9.7-3.4.5-3.8-.2-.3-.7-.5-1.5-.9z"/>
  <path fill="#fff" d="M48.1 18C31.6 18 18.2 31.4 18.2 47.8c0 5.3 1.4 10.4 4 14.9L18 78l15.7-4.1c4.3 2.3 9.3 3.6 14.3 3.6h.1c16.5 0 29.9-13.4 29.9-29.8C78 31.4 64.6 18 48.1 18zm0 54.4h-.1c-4.5 0-8.9-1.2-12.7-3.5l-.9-.5-9.3 2.4 2.5-9.1-.6-.9c-2.5-3.9-3.8-8.4-3.8-13 0-13.7 11.2-24.8 24.9-24.8S73 34.1 73 47.8 61.8 72.4 48.1 72.4z"/>
</svg>
